<?xml version="1.0" encoding="UTF-8" standalone="no"?><svg xmlns="http://www.w3.org/2000/svg" xmlns:xlink="http://www.w3.org/1999/xlink" contentScriptType="application/ecmascript" contentStyleType="text/css" height="733px" preserveAspectRatio="none" style="width:1028px;height:733px;" version="1.1" viewBox="0 0 1028 733" width="1028px" zoomAndPan="magnify"><defs><filter height="300%" id="fh8svs5d7tn0j" width="300%" x="-1" y="-1"><feGaussianBlur result="blurOut" stdDeviation="2.0"/><feColorMatrix in="blurOut" result="blurOut2" type="matrix" values="0 0 0 0 0 0 0 0 0 0 0 0 0 0 0 0 0 0 .4 0"/><feOffset dx="4.0" dy="4.0" in="blurOut2" result="blurOut3"/><feBlend in="SourceGraphic" in2="blurOut3" mode="normal"/></filter></defs><g><ellipse cx="491.375" cy="20" fill="#000000" filter="url(#fh8svs5d7tn0j)" rx="10" ry="10" style="stroke: none; stroke-width: 1.0;"/><rect fill="#FEFECE" filter="url(#fh8svs5d7tn0j)" height="34.1328" rx="12.5" ry="12.5" style="stroke: #A80036; stroke-width: 1.5;" width="125" x="428.875" y="50"/><text fill="#000000" font-family="sans-serif" font-size="12" lengthAdjust="spacingAndGlyphs" textLength="105" x="438.875" y="71.6016">Machine controller</text><rect fill="#FEFECE" filter="url(#fh8svs5d7tn0j)" height="34.1328" rx="12.5" ry="12.5" style="stroke: #A80036; stroke-width: 1.5;" width="261" x="360.875" y="148.1328"/><text fill="#000000" font-family="sans-serif" font-size="12" lengthAdjust="spacingAndGlyphs" textLength="241" x="370.875" y="169.7344">Machine controller enqueues a Create call</text><polygon fill="#FEFECE" filter="url(#fh8svs5d7tn0j)" points="413.875,202.2656,568.875,202.2656,580.875,214.2656,568.875,226.2656,413.875,226.2656,401.875,214.2656,413.875,202.2656" style="stroke: #A80036; stroke-width: 1.5;"/><text fill="#000000" font-family="sans-serif" font-size="11" lengthAdjust="spacingAndGlyphs" textLength="155" x="413.875" y="218.4229">Cluster has ready annotation</text><text fill="#000000" font-family="sans-serif" font-size="11" lengthAdjust="spacingAndGlyphs" textLength="18" x="383.875" y="211.9453">yes</text><text fill="#000000" font-family="sans-serif" font-size="11" lengthAdjust="spacingAndGlyphs" textLength="14" x="580.875" y="211.9453">no</text><polygon fill="#FEFECE" filter="url(#fh8svs5d7tn0j)" points="127,236.2656,291,236.2656,303,248.2656,291,260.2656,127,260.2656,115,248.2656,127,236.2656" style="stroke: #A80036; stroke-width: 1.5;"/><text fill="#000000" font-family="sans-serif" font-size="11" lengthAdjust="spacingAndGlyphs" textLength="164" x="127" y="252.4229">Machine has control plane role</text><text fill="#000000" font-family="sans-serif" font-size="11" lengthAdjust="spacingAndGlyphs" textLength="18" x="97" y="245.9453">yes</text><text fill="#000000" font-family="sans-serif" font-size="11" lengthAdjust="spacingAndGlyphs" textLength="14" x="303" y="245.9453">no</text><rect fill="#ADD8E6" filter="url(#fh8svs5d7tn0j)" height="34.1328" rx="12.5" ry="12.5" style="stroke: #A80036; stroke-width: 1.5;" width="190" x="10" y="270.2656"/><text fill="#000000" font-family="sans-serif" font-size="12" lengthAdjust="spacingAndGlyphs" textLength="170" x="20" y="291.8672">Join as control plane member</text><rect fill="#ADD8E6" filter="url(#fh8svs5d7tn0j)" height="34.1328" rx="12.5" ry="12.5" style="stroke: #A80036; stroke-width: 1.5;" width="135" x="245.5" y="270.2656"/><text fill="#000000" font-family="sans-serif" font-size="12" lengthAdjust="spacingAndGlyphs" textLength="115" x="255.5" y="291.8672">Join as worker node</text><polygon fill="#FEFECE" filter="url(#fh8svs5d7tn0j)" points="209,310.3984,221,322.3984,209,334.3984,197,322.3984,209,310.3984" style="stroke: #A80036; stroke-width: 1.5;"/><polygon fill="#FEFECE" filter="url(#fh8svs5d7tn0j)" points="691.75,236.2656,855.75,236.2656,867.75,248.2656,855.75,260.2656,691.75,260.2656,679.75,248.2656,691.75,236.2656" style="stroke: #A80036; stroke-width: 1.5;"/><text fill="#000000" font-family="sans-serif" font-size="11" lengthAdjust="spacingAndGlyphs" textLength="164" x="691.75" y="252.4229">Machine has control plane role</text><text fill="#000000" font-family="sans-serif" font-size="11" lengthAdjust="spacingAndGlyphs" textLength="18" x="661.75" y="245.9453">yes</text><text fill="#000000" font-family="sans-serif" font-size="11" lengthAdjust="spacingAndGlyphs" textLength="14" x="867.75" y="245.9453">no</text><rect fill="#ADD8E6" filter="url(#fh8svs5d7tn0j)" height="34.1328" rx="12.5" ry="12.5" style="stroke: #A80036; stroke-width: 1.5;" width="205" x="527.5" y="270.2656"/><text fill="#000000" font-family="sans-serif" font-size="12" lengthAdjust="spacingAndGlyphs" textLength="185" x="537.5" y="291.8672">Create control plane config map</text><polygon fill="#FEFECE" filter="url(#fh8svs5d7tn0j)" points="523.5,339.3984,736.5,339.3984,748.5,351.3984,736.5,363.3984,523.5,363.3984,511.5,351.3984,523.5,339.3984" style="stroke: #A80036; stroke-width: 1.5;"/><text fill="#000000" font-family="sans-serif" font-size="11" lengthAdjust="spacingAndGlyphs" textLength="213" x="523.5" y="355.5557">Control plane config map already exists</text><text fill="#000000" font-family="sans-serif" font-size="11" lengthAdjust="spacingAndGlyphs" textLength="18" x="493.5" y="349.0781">yes</text><text fill="#000000" font-family="sans-serif" font-size="11" lengthAdjust="spacingAndGlyphs" textLength="14" x="748.5" y="349.0781">no</text><rect fill="#FFC0CB" filter="url(#fh8svs5d7tn0j)" height="34.1328" rx="12.5" ry="12.5" style="stroke: #A80036; stroke-width: 1.5;" width="142" x="430.5" y="373.3984"/><text fill="#000000" font-family="sans-serif" font-size="12" lengthAdjust="spacingAndGlyphs" textLength="122" x="440.5" y="395">Return RequeueError</text><rect fill="#ADD8E6" filter="url(#fh8svs5d7tn0j)" height="34.1328" rx="12.5" ry="12.5" style="stroke: #A80036; stroke-width: 1.5;" width="116" x="700.5" y="373.3984"/><text fill="#000000" font-family="sans-serif" font-size="12" lengthAdjust="spacingAndGlyphs" textLength="96" x="710.5" y="395">Init control plane</text><polygon fill="#FEFECE" filter="url(#fh8svs5d7tn0j)" points="630,413.5313,642,425.5313,630,437.5313,618,425.5313,630,413.5313" style="stroke: #A80036; stroke-width: 1.5;"/><rect fill="#FFC0CB" filter="url(#fh8svs5d7tn0j)" height="34.1328" rx="12.5" ry="12.5" style="stroke: #A80036; stroke-width: 1.5;" width="142" x="846.5" y="270.2656"/><text fill="#000000" font-family="sans-serif" font-size="12" lengthAdjust="spacingAndGlyphs" textLength="122" x="856.5" y="291.8672">Return RequeueError</text><polygon fill="#FEFECE" filter="url(#fh8svs5d7tn0j)" points="773.75,443.5313,785.75,455.5313,773.75,467.5313,761.75,455.5313,773.75,443.5313" style="stroke: #A80036; stroke-width: 1.5;"/><polygon fill="#FEFECE" filter="url(#fh8svs5d7tn0j)" points="491.375,473.5313,503.375,485.5313,491.375,497.5313,479.375,485.5313,491.375,473.5313" style="stroke: #A80036; stroke-width: 1.5;"/><polygon fill="#FEFECE" filter="url(#fh8svs5d7tn0j)" points="491.375,104.1328,503.375,116.1328,491.375,128.1328,479.375,116.1328,491.375,104.1328" style="stroke: #A80036; stroke-width: 1.5;"/><polygon fill="#FEFECE" filter="url(#fh8svs5d7tn0j)" points="410.375,517.5313,572.375,517.5313,584.375,529.5313,572.375,541.5313,410.375,541.5313,398.375,529.5313,410.375,517.5313" style="stroke: #A80036; stroke-width: 1.5;"/><text fill="#000000" font-family="sans-serif" font-size="11" lengthAdjust="spacingAndGlyphs" textLength="162" x="410.375" y="533.6885">Create returned RequeueError</text><text fill="#000000" font-family="sans-serif" font-size="11" lengthAdjust="spacingAndGlyphs" textLength="18" x="584.375" y="527.2109">yes</text><polygon fill="#FEFECE" filter="url(#fh8svs5d7tn0j)" points="433.375,582.8066,549.375,582.8066,561.375,594.8066,549.375,606.8066,433.375,606.8066,421.375,594.8066,433.375,582.8066" style="stroke: #A80036; stroke-width: 1.5;"/><text fill="#000000" font-family="sans-serif" font-size="11" lengthAdjust="spacingAndGlyphs" textLength="116" x="433.375" y="598.9639">Create returned error</text><text fill="#000000" font-family="sans-serif" font-size="11" lengthAdjust="spacingAndGlyphs" textLength="18" x="403.375" y="592.4863">yes</text><text fill="#000000" font-family="sans-serif" font-size="11" lengthAdjust="spacingAndGlyphs" textLength="14" x="561.375" y="592.4863">no</text><rect fill="#FFC0CB" filter="url(#fh8svs5d7tn0j)" height="34.1328" rx="12.5" ry="12.5" style="stroke: #A80036; stroke-width: 1.5;" width="151" x="300.625" y="616.8066"/><text fill="#000000" font-family="sans-serif" font-size="12" lengthAdjust="spacingAndGlyphs" textLength="131" x="310.625" y="638.4082">Error creating machine</text><rect fill="#ADD8E6" filter="url(#fh8svs5d7tn0j)" height="34.1328" rx="12.5" ry="12.5" style="stroke: #A80036; stroke-width: 1.5;" width="270" x="471.625" y="616.8066"/><text fill="#000000" font-family="sans-serif" font-size="12" lengthAdjust="spacingAndGlyphs" textLength="250" x="481.625" y="638.4082">Machine has initialized or joined the cluster</text><polygon fill="#FEFECE" filter="url(#fh8svs5d7tn0j)" points="491.375,656.9395,503.375,668.9395,491.375,680.9395,479.375,668.9395,491.375,656.9395" style="stroke: #A80036; stroke-width: 1.5;"/><ellipse cx="491.375" cy="711.9395" fill="#FFFFFF" filter="url(#fh8svs5d7tn0j)" rx="11" ry="11" style="stroke: #000000; stroke-width: 1.0;"/><ellipse cx="491.375" cy="711.9395" fill="#000000" rx="6" ry="6" style="stroke: #7F7F7F; stroke-width: 1.0;"/><line style="stroke: #A80036; stroke-width: 1.5;" x1="491.375" x2="491.375" y1="30" y2="50"/><polygon fill="#A80036" points="487.375,40,491.375,50,495.375,40,491.375,44" style="stroke: #A80036; stroke-width: 1.0;"/><line style="stroke: #A80036; stroke-width: 1.5;" x1="115" x2="105" y1="248.2656" y2="248.2656"/><line style="stroke: #A80036; stroke-width: 1.5;" x1="105" x2="105" y1="248.2656" y2="270.2656"/><polygon fill="#A80036" points="101,260.2656,105,270.2656,109,260.2656,105,264.2656" style="stroke: #A80036; stroke-width: 1.0;"/><line style="stroke: #A80036; stroke-width: 1.5;" x1="303" x2="313" y1="248.2656" y2="248.2656"/><line style="stroke: #A80036; stroke-width: 1.5;" x1="313" x2="313" y1="248.2656" y2="270.2656"/><polygon fill="#A80036" points="309,260.2656,313,270.2656,317,260.2656,313,264.2656" style="stroke: #A80036; stroke-width: 1.0;"/><line style="stroke: #A80036; stroke-width: 1.5;" x1="105" x2="105" y1="304.3984" y2="322.3984"/><line style="stroke: #A80036; stroke-width: 1.5;" x1="105" x2="197" y1="322.3984" y2="322.3984"/><polygon fill="#A80036" points="187,318.3984,197,322.3984,187,326.3984,191,322.3984" style="stroke: #A80036; stroke-width: 1.0;"/><line style="stroke: #A80036; stroke-width: 1.5;" x1="313" x2="313" y1="304.3984" y2="322.3984"/><line style="stroke: #A80036; stroke-width: 1.5;" x1="313" x2="221" y1="322.3984" y2="322.3984"/><polygon fill="#A80036" points="231,318.3984,221,322.3984,231,326.3984,227,322.3984" style="stroke: #A80036; stroke-width: 1.0;"/><line style="stroke: #A80036; stroke-width: 1.5;" x1="511.5" x2="501.5" y1="351.3984" y2="351.3984"/><line style="stroke: #A80036; stroke-width: 1.5;" x1="501.5" x2="501.5" y1="351.3984" y2="373.3984"/><polygon fill="#A80036" points="497.5,363.3984,501.5,373.3984,505.5,363.3984,501.5,367.3984" style="stroke: #A80036; stroke-width: 1.0;"/><line style="stroke: #A80036; stroke-width: 1.5;" x1="748.5" x2="758.5" y1="351.3984" y2="351.3984"/><line style="stroke: #A80036; stroke-width: 1.5;" x1="758.5" x2="758.5" y1="351.3984" y2="373.3984"/><polygon fill="#A80036" points="754.5,363.3984,758.5,373.3984,762.5,363.3984,758.5,367.3984" style="stroke: #A80036; stroke-width: 1.0;"/><line style="stroke: #A80036; stroke-width: 1.5;" x1="501.5" x2="501.5" y1="407.5313" y2="425.5313"/><line style="stroke: #A80036; stroke-width: 1.5;" x1="501.5" x2="618" y1="425.5313" y2="425.5313"/><polygon fill="#A80036" points="608,421.5313,618,425.5313,608,429.5313,612,425.5313" style="stroke: #A80036; stroke-width: 1.0;"/><line style="stroke: #A80036; stroke-width: 1.5;" x1="758.5" x2="758.5" y1="407.5313" y2="425.5313"/><line style="stroke: #A80036; stroke-width: 1.5;" x1="758.5" x2="642" y1="425.5313" y2="425.5313"/><polygon fill="#A80036" points="652,421.5313,642,425.5313,652,429.5313,648,425.5313" style="stroke: #A80036; stroke-width: 1.0;"/><line style="stroke: #A80036; stroke-width: 1.5;" x1="630" x2="630" y1="304.3984" y2="339.3984"/><polygon fill="#A80036" points="626,329.3984,630,339.3984,634,329.3984,630,333.3984" style="stroke: #A80036; stroke-width: 1.0;"/><line style="stroke: #A80036; stroke-width: 1.5;" x1="679.75" x2="630" y1="248.2656" y2="248.2656"/><line style="stroke: #A80036; stroke-width: 1.5;" x1="630" x2="630" y1="248.2656" y2="270.2656"/><polygon fill="#A80036" points="626,260.2656,630,270.2656,634,260.2656,630,264.2656" style="stroke: #A80036; stroke-width: 1.0;"/><line style="stroke: #A80036; stroke-width: 1.5;" x1="867.75" x2="917.5" y1="248.2656" y2="248.2656"/><line style="stroke: #A80036; stroke-width: 1.5;" x1="917.5" x2="917.5" y1="248.2656" y2="270.2656"/><polygon fill="#A80036" points="913.5,260.2656,917.5,270.2656,921.5,260.2656,917.5,264.2656" style="stroke: #A80036; stroke-width: 1.0;"/><line style="stroke: #A80036; stroke-width: 1.5;" x1="630" x2="630" y1="437.5313" y2="455.5313"/><line style="stroke: #A80036; stroke-width: 1.5;" x1="630" x2="761.75" y1="455.5313" y2="455.5313"/><polygon fill="#A80036" points="751.75,451.5313,761.75,455.5313,751.75,459.5313,755.75,455.5313" style="stroke: #A80036; stroke-width: 1.0;"/><line style="stroke: #A80036; stroke-width: 1.5;" x1="917.5" x2="917.5" y1="304.3984" y2="455.5313"/><line style="stroke: #A80036; stroke-width: 1.5;" x1="917.5" x2="785.75" y1="455.5313" y2="455.5313"/><polygon fill="#A80036" points="795.75,451.5313,785.75,455.5313,795.75,459.5313,791.75,455.5313" style="stroke: #A80036; stroke-width: 1.0;"/><line style="stroke: #A80036; stroke-width: 1.5;" x1="401.875" x2="209" y1="214.2656" y2="214.2656"/><line style="stroke: #A80036; stroke-width: 1.5;" x1="209" x2="209" y1="214.2656" y2="236.2656"/><polygon fill="#A80036" points="205,226.2656,209,236.2656,213,226.2656,209,230.2656" style="stroke: #A80036; stroke-width: 1.0;"/><line style="stroke: #A80036; stroke-width: 1.5;" x1="580.875" x2="773.75" y1="214.2656" y2="214.2656"/><line style="stroke: #A80036; stroke-width: 1.5;" x1="773.75" x2="773.75" y1="214.2656" y2="236.2656"/><polygon fill="#A80036" points="769.75,226.2656,773.75,236.2656,777.75,226.2656,773.75,230.2656" style="stroke: #A80036; stroke-width: 1.0;"/><line style="stroke: #A80036; stroke-width: 1.5;" x1="209" x2="209" y1="334.3984" y2="485.5313"/><line style="stroke: #A80036; stroke-width: 1.5;" x1="209" x2="479.375" y1="485.5313" y2="485.5313"/><polygon fill="#A80036" points="469.375,481.5313,479.375,485.5313,469.375,489.5313,473.375,485.5313" style="stroke: #A80036; stroke-width: 1.0;"/><line style="stroke: #A80036; stroke-width: 1.5;" x1="773.75" x2="773.75" y1="467.5313" y2="485.5313"/><line style="stroke: #A80036; stroke-width: 1.5;" x1="773.75" x2="503.375" y1="485.5313" y2="485.5313"/><polygon fill="#A80036" points="513.375,481.5313,503.375,485.5313,513.375,489.5313,509.375,485.5313" style="stroke: #A80036; stroke-width: 1.0;"/><line style="stroke: #A80036; stroke-width: 1.5;" x1="491.375" x2="491.375" y1="182.2656" y2="202.2656"/><polygon fill="#A80036" points="487.375,192.2656,491.375,202.2656,495.375,192.2656,491.375,196.2656" style="stroke: #A80036; stroke-width: 1.0;"/><line style="stroke: #A80036; stroke-width: 1.5;" x1="491.375" x2="491.375" y1="128.1328" y2="148.1328"/><polygon fill="#A80036" points="487.375,138.1328,491.375,148.1328,495.375,138.1328,491.375,142.1328" style="stroke: #A80036; stroke-width: 1.0;"/><line style="stroke: #A80036; stroke-width: 1.5;" x1="584.375" x2="1002.5" y1="529.5313" y2="529.5313"/><polygon fill="#A80036" points="998.5,325.332,1002.5,315.332,1006.5,325.332,1002.5,321.332" style="stroke: #A80036; stroke-width: 1.5;"/><line style="stroke: #A80036; stroke-width: 1.5;" x1="1002.5" x2="1002.5" y1="116.1328" y2="529.5313"/><line style="stroke: #A80036; stroke-width: 1.5;" x1="1002.5" x2="503.375" y1="116.1328" y2="116.1328"/><polygon fill="#A80036" points="513.375,112.1328,503.375,116.1328,513.375,120.1328,509.375,116.1328" style="stroke: #A80036; stroke-width: 1.0;"/><line style="stroke: #A80036; stroke-width: 1.5;" x1="491.375" x2="491.375" y1="497.5313" y2="517.5313"/><polygon fill="#A80036" points="487.375,507.5313,491.375,517.5313,495.375,507.5313,491.375,511.5313" style="stroke: #A80036; stroke-width: 1.0;"/><line style="stroke: #A80036; stroke-width: 1.5;" x1="491.375" x2="491.375" y1="84.1328" y2="104.1328"/><polygon fill="#A80036" points="487.375,94.1328,491.375,104.1328,495.375,94.1328,491.375,98.1328" style="stroke: #A80036; stroke-width: 1.0;"/><line style="stroke: #A80036; stroke-width: 1.5;" x1="421.375" x2="376.125" y1="594.8066" y2="594.8066"/><line style="stroke: #A80036; stroke-width: 1.5;" x1="376.125" x2="376.125" y1="594.8066" y2="616.8066"/><polygon fill="#A80036" points="372.125,606.8066,376.125,616.8066,380.125,606.8066,376.125,610.8066" style="stroke: #A80036; stroke-width: 1.0;"/><line style="stroke: #A80036; stroke-width: 1.5;" x1="561.375" x2="606.625" y1="594.8066" y2="594.8066"/><line style="stroke: #A80036; stroke-width: 1.5;" x1="606.625" x2="606.625" y1="594.8066" y2="616.8066"/><polygon fill="#A80036" points="602.625,606.8066,606.625,616.8066,610.625,606.8066,606.625,610.8066" style="stroke: #A80036; stroke-width: 1.0;"/><line style="stroke: #A80036; stroke-width: 1.5;" x1="376.125" x2="376.125" y1="650.9395" y2="668.9395"/><line style="stroke: #A80036; stroke-width: 1.5;" x1="376.125" x2="479.375" y1="668.9395" y2="668.9395"/><polygon fill="#A80036" points="469.375,664.9395,479.375,668.9395,469.375,672.9395,473.375,668.9395" style="stroke: #A80036; stroke-width: 1.0;"/><line style="stroke: #A80036; stroke-width: 1.5;" x1="606.625" x2="606.625" y1="650.9395" y2="668.9395"/><line style="stroke: #A80036; stroke-width: 1.5;" x1="606.625" x2="503.375" y1="668.9395" y2="668.9395"/><polygon fill="#A80036" points="513.375,664.9395,503.375,668.9395,513.375,672.9395,509.375,668.9395" style="stroke: #A80036; stroke-width: 1.0;"/><line style="stroke: #A80036; stroke-width: 1.5;" x1="491.375" x2="491.375" y1="541.5313" y2="582.8066"/><polygon fill="#A80036" points="487.375,572.8066,491.375,582.8066,495.375,572.8066,491.375,576.8066" style="stroke: #A80036; stroke-width: 1.0;"/><text fill="#000000" font-family="sans-serif" font-size="11" lengthAdjust="spacingAndGlyphs" textLength="14" x="495.375" y="562.9863">no</text><line style="stroke: #A80036; stroke-width: 1.5;" x1="491.375" x2="491.375" y1="680.9395" y2="700.9395"/><polygon fill="#A80036" points="487.375,690.9395,491.375,700.9395,495.375,690.9395,491.375,694.9395" style="stroke: #A80036; stroke-width: 1.0;"/><!--
@startuml cluster-admission-machine-controller

start;
:Machine controller;

repeat
  :Machine controller enqueues a Create call;
  if (Cluster has ready annotation) then (yes)
    if (Machine has control plane role) then (yes)
      #LightBlue:Join as control plane member;
    else (no)
      #LightBlue:Join as worker node;
    endif
  else (no)
    if (Machine has control plane role) then (yes)
      #LightBlue:Create control plane config map;
      if (Control plane config map already exists) then (yes)
        #Pink:Return RequeueError;
      else (no)
        #LightBlue:Init control plane;
      endif
    else (no)
      #Pink:Return RequeueError;
    endif
  endif
repeat while (Create returned RequeueError) is (yes)
-> no;
if (Create returned error) then (yes)
  #Pink:Error creating machine;
else (no)
  #LightBlue:Machine has initialized or joined the cluster;
endif
stop;

@enduml

PlantUML version 1.2019.06(Fri May 24 12:10:25 CDT 2019)
(GPL source distribution)
Java Runtime: Java(TM) SE Runtime Environment
JVM: Java HotSpot(TM) 64-Bit Server VM
Java Version: 1.8.0_191-b12
Operating System: Mac OS X
OS Version: 10.14.5
Default Encoding: UTF-8
Language: en
Country: US
--></g></svg>